<svg width="512" height="512" viewBox="0 0 512 512" xmlns="http://www.w3.org/2000/svg">
  <rect width="512" height="512" rx="96" fill="#1F3A2F"/>
  
  <rect x="131" y="56" width="250" height="400" rx="28" fill="white"/>
  <text x="256" y="300" text-anchor="middle" font-size="200" font-family="sans-serif" fill="#D32F2F">中</text>
  
  <g transform="translate(230, 350) scale(1.4)">
    <path fill="#1F5140" d="M 103.8 13.3 C 117.9 10.8 133.6 15.5 143.1 26.5 C 152.2 26.1 161.1 24.2 169.8 21.6 C 174.9 20.2 181.1 18.8 185.8 22.1 C 189.2 24.7 188.1 29.4 187.6 33.1 C 184.9 48.8 181.4 64.7 173.9 78.9 C 167.6 90.4 156.6 100.5 143.0 101.7 C 125.1 103.8 107.0 103.9 89.0 102.5 C 84.2 102.3 79.5 101.7 74.9 100.8 C 69.6 100.0 65.1 96.9 60.9 93.8 C 52.1 87.1 46.9 76.9 43.1 66.7 C 38.9 54.1 35.7 41.1 34.6 27.9 C 34.4 25.7 34.8 23.0 36.8 21.8 C 40.5 19.3 45.3 20.0 49.5 20.6 C 59.1 23.3 68.9 26.1 79.0 26.5 C 85.5 19.6 94.3 14.7 103.8 13.3 M 79.6 32.5 C 77.7 34.8 76.5 37.5 74.8 39.8 C 73.3 40.0 70.9 40.0 71.1 37.9 C 71.6 35.1 73.8 33.0 75.1 30.6 C 66.2 29.8 57.6 27.3 49.0 25.0 C 45.7 24.1 42.2 24.0 39.0 25.2 C 39.3 26.4 39.4 27.7 40.4 28.5 C 43.5 31.8 47.7 34.0 51.7 36.2 C 63.9 42.3 77.4 45.5 90.9 47.0 C 108.7 49.4 126.9 48.3 144.5 45.0 C 154.9 43.1 165.0 39.4 174.4 34.4 C 177.9 32.2 182.0 30.0 183.6 25.9 C 180.6 23.4 176.6 24.6 173.2 25.3 C 164.5 27.4 155.9 30.1 146.8 30.6 C 148.1 32.5 149.5 34.3 150.5 36.3 C 151.0 37.4 151.3 39.4 149.8 39.9 C 148.7 41.1 147.2 39.5 146.5 38.5 C 143.9 34.0 141.0 29.4 136.8 26.2 C 130.0 20.2 120.9 17.3 112.0 16.7 C 99.6 16.8 87.1 22.5 79.6 32.5 M 39.4 33.8 C 41.4 46.3 44.6 58.7 49.3 70.6 C 53.8 81.4 61.8 91.6 73.1 95.8 C 82.5 98.3 92.3 98.4 101.9 98.9 C 112.9 99.6 123.9 98.8 134.9 98.2 C 141.5 97.4 148.6 97.1 154.3 93.4 C 166.5 86.4 173.1 72.9 177.0 59.9 C 179.3 51.3 182.3 42.9 182.9 34.0 C 173.3 41.3 161.7 45.5 150.1 48.4 C 132.1 52.6 113.4 53.3 95.1 52.0 C 75.6 50.0 55.4 45.6 39.4 33.8 Z" />
    <path fill="#F6C038" d="M 79.6 32.5 C 87.1 22.5 99.6 16.8 112.0 16.7 C 120.9 17.3 130.0 20.2 136.8 26.2 C 141.0 29.4 143.9 34.0 146.5 38.5 C 147.2 39.5 148.7 41.1 149.8 39.9 C 151.3 39.4 151.0 37.4 150.5 36.3 C 149.5 34.3 148.1 32.5 146.8 30.6 C 155.9 30.1 164.5 27.4 173.2 25.3 C 176.6 24.6 180.6 23.4 183.6 25.9 C 182.0 30.0 177.9 32.2 174.4 34.4 C 165.0 39.4 154.9 43.1 144.5 45.0 C 126.9 48.3 108.7 49.4 90.9 47.0 C 77.4 45.5 63.9 42.3 51.7 36.2 C 47.7 34.0 43.5 31.8 40.4 28.5 C 39.4 27.7 39.3 26.4 39.0 25.2 C 42.2 24.0 45.7 24.1 49.0 25.0 C 57.6 27.3 66.2 29.8 75.1 30.6 C 73.8 33.0 71.6 35.1 71.1 37.9 C 70.9 40.0 73.3 40.0 74.8 39.8 C 76.5 37.5 77.7 34.8 79.6 32.5 M 87.4 35.2 C 89.4 36.7 92.2 38.7 94.5 36.4 C 98.8 33.6 94.8 25.6 90.0 27.8 C 86.5 28.5 87.0 32.6 87.4 35.2 Z M 39.4 33.8 C 55.4 45.6 75.6 50.0 95.1 52.0 C 113.4 53.3 132.1 52.6 150.1 48.4 C 161.7 45.5 173.3 41.3 182.9 34.0 C 182.3 42.9 179.3 51.3 177.0 59.9 C 173.1 72.9 166.5 86.4 154.3 93.4 C 148.6 97.1 141.5 97.4 134.9 98.2 C 123.9 98.8 112.9 99.6 101.9 98.9 C 92.3 98.4 82.5 98.3 73.1 95.8 C 61.8 91.6 53.8 81.4 49.3 70.6 C 44.6 58.7 41.4 46.3 39.4 33.8 Z" />
  </g>
  


</svg>

